<svg width="147" height="35" viewBox="0 0 147 35" fill="none" xmlns="http://www.w3.org/2000/svg">
<path d="M23.8438 6.61719H15.4062V35H8.49219V6.61719H0.195312V0.875H23.8438V6.61719ZM45.4297 20.2344H34.6953V29.2812H47.3984V35H27.8047V0.875H47.3516V6.61719H34.6953V14.6797H45.4297V20.2344ZM61.7188 22.5312H58.2969V35H51.4062V0.875H62.3984C65.8516 0.875 68.5156 1.77344 70.3906 3.57031C72.2812 5.35156 73.2266 7.89062 73.2266 11.1875C73.2266 15.7188 71.5781 18.8906 68.2812 20.7031L74.2578 34.6719V35H66.8516L61.7188 22.5312ZM58.2969 16.7891H62.2109C63.5859 16.7891 64.6172 16.3359 65.3047 15.4297C65.9922 14.5078 66.3359 13.2812 66.3359 11.75C66.3359 8.32812 65 6.61719 62.3281 6.61719H58.2969V16.7891ZM95.5859 20.2344H84.8516V29.2812H97.5547V35H77.9609V0.875H97.5078V6.61719H84.8516V14.6797H95.5859V20.2344ZM108.688 29.2812H122.75V35H100.625V30.8516L114.547 6.61719H100.484V0.875H122.492V4.92969L108.688 29.2812ZM144.617 20.2344H133.883V29.2812H146.586V35H126.992V0.875H146.539V6.61719H133.883V14.6797H144.617V20.2344Z" fill="#037DE8"/>
</svg>
